<svg width="525" height="353" viewBox="0 0 525 353" fill="none" xmlns="http://www.w3.org/2000/svg">
<rect width="525" height="353" rx="8" fill="white"/>
<rect x="0.5" y="0.5" width="524" height="352" rx="7.5" stroke="black" stroke-opacity="0.121569"/>
<rect x="402.5" y="279.914" width="107" height="40.5921" rx="19.5" fill="black"/>
<rect x="402.5" y="279.914" width="107" height="40.5921" rx="19.5" stroke="black"/>
<path d="M421.242 305.702C422.309 305.702 422.842 305.339 422.842 304.614C422.842 304.305 422.746 304.059 422.554 303.878C422.362 303.697 422.01 303.542 421.498 303.414L420.618 303.19C419.968 303.03 419.482 302.753 419.162 302.358C418.842 301.953 418.682 301.473 418.682 300.918C418.682 300.513 418.773 300.139 418.954 299.798C419.136 299.446 419.424 299.163 419.818 298.95C420.213 298.737 420.725 298.63 421.354 298.63C421.76 298.63 422.17 298.678 422.586 298.774C423.013 298.859 423.445 299.009 423.882 299.222L423.466 300.326C422.688 299.974 421.984 299.798 421.354 299.798C420.426 299.798 419.962 300.145 419.962 300.838C419.962 301.105 420.048 301.334 420.218 301.526C420.389 301.718 420.709 301.873 421.178 301.99L422.058 302.214C422.762 302.385 423.28 302.662 423.61 303.046C423.941 303.43 424.106 303.926 424.106 304.534C424.106 304.971 424.01 305.371 423.818 305.734C423.637 306.086 423.338 306.363 422.922 306.566C422.517 306.769 421.968 306.87 421.274 306.87C420.816 306.87 420.357 306.822 419.898 306.726C419.45 306.63 418.986 306.475 418.506 306.262L418.858 305.174C419.317 305.355 419.733 305.489 420.106 305.574C420.48 305.659 420.858 305.702 421.242 305.702ZM431.077 306.71V305.59C430.522 306.07 430.026 306.406 429.589 306.598C429.152 306.779 428.714 306.87 428.277 306.87C427.573 306.87 427.034 306.641 426.661 306.182C426.288 305.713 426.101 305.057 426.101 304.214V298.79H427.413V304.022C427.413 304.577 427.509 304.987 427.701 305.254C427.904 305.51 428.202 305.638 428.597 305.638C428.896 305.638 429.232 305.563 429.605 305.414C429.978 305.265 430.442 304.966 430.997 304.518V298.79H432.309V306.71H431.077ZM438.863 299.862C438.564 299.862 438.228 299.942 437.855 300.102C437.481 300.251 437.012 300.55 436.447 300.998V306.71H435.135V298.79H436.383V299.894C436.948 299.425 437.449 299.099 437.887 298.918C438.324 298.726 438.756 298.63 439.183 298.63C439.684 298.63 440.1 298.747 440.431 298.982C440.761 299.206 441.007 299.531 441.167 299.958C441.753 299.457 442.276 299.11 442.735 298.918C443.204 298.726 443.663 298.63 444.111 298.63C444.815 298.63 445.353 298.865 445.727 299.334C446.1 299.793 446.287 300.449 446.287 301.302V306.71H444.975V301.494C444.975 300.406 444.58 299.862 443.791 299.862C443.492 299.862 443.151 299.942 442.767 300.102C442.393 300.251 441.924 300.55 441.359 300.998C441.369 301.041 441.375 301.089 441.375 301.142C441.375 301.195 441.375 301.249 441.375 301.302V306.71H440.063V301.494C440.063 300.406 439.663 299.862 438.863 299.862ZM452.769 299.862C452.47 299.862 452.134 299.942 451.761 300.102C451.387 300.251 450.918 300.55 450.353 300.998V306.71H449.041V298.79H450.289V299.894C450.854 299.425 451.355 299.099 451.793 298.918C452.23 298.726 452.662 298.63 453.089 298.63C453.59 298.63 454.006 298.747 454.337 298.982C454.667 299.206 454.913 299.531 455.073 299.958C455.659 299.457 456.182 299.11 456.641 298.918C457.11 298.726 457.569 298.63 458.017 298.63C458.721 298.63 459.259 298.865 459.633 299.334C460.006 299.793 460.193 300.449 460.193 301.302V306.71H458.881V301.494C458.881 300.406 458.486 299.862 457.697 299.862C457.398 299.862 457.057 299.942 456.673 300.102C456.299 300.251 455.83 300.55 455.265 300.998C455.275 301.041 455.281 301.089 455.281 301.142C455.281 301.195 455.281 301.249 455.281 301.302V306.71H453.969V301.494C453.969 300.406 453.569 299.862 452.769 299.862ZM468.739 306.79C468.248 306.79 467.854 306.678 467.555 306.454C467.267 306.23 467.064 305.953 466.947 305.622C466.424 306.081 465.95 306.406 465.523 306.598C465.096 306.779 464.67 306.87 464.243 306.87C463.55 306.87 463.038 306.646 462.707 306.198C462.376 305.75 462.211 305.201 462.211 304.55C462.211 304.113 462.291 303.723 462.451 303.382C462.611 303.041 462.883 302.774 463.267 302.582C463.651 302.379 464.168 302.278 464.819 302.278C465.107 302.278 465.422 302.299 465.763 302.342C466.104 302.374 466.451 302.417 466.803 302.47V301.398C466.803 300.801 466.67 300.395 466.403 300.182C466.147 299.958 465.768 299.846 465.267 299.846C464.584 299.846 463.822 300.033 462.979 300.406L462.563 299.318C463.054 299.094 463.523 298.923 463.971 298.806C464.419 298.689 464.872 298.63 465.331 298.63C466.078 298.63 466.648 298.753 467.043 298.998C467.438 299.243 467.71 299.569 467.859 299.974C468.008 300.379 468.083 300.822 468.083 301.302V304.726C468.083 304.971 468.131 305.179 468.227 305.35C468.323 305.51 468.515 305.59 468.803 305.59H468.979V306.79H468.739ZM463.507 304.534C463.507 304.897 463.592 305.19 463.763 305.414C463.934 305.638 464.179 305.75 464.499 305.75C464.776 305.75 465.096 305.67 465.459 305.51C465.822 305.339 466.27 305.003 466.803 304.502V303.494C466.078 303.377 465.438 303.318 464.883 303.318C464.392 303.318 464.04 303.419 463.827 303.622C463.614 303.825 463.507 304.129 463.507 304.534ZM474.998 299.942C474.518 299.942 474.048 300.027 473.59 300.198C473.142 300.369 472.662 300.694 472.15 301.174V306.71H470.838V298.79H472.086V300.07C472.63 299.537 473.126 299.163 473.574 298.95C474.032 298.737 474.507 298.63 474.998 298.63V299.942ZM478.105 296.854H476.633V295.382H478.105V296.854ZM478.025 306.71H476.713V298.79H478.025V306.71ZM485.509 305.574V306.71H480.005V305.686L483.797 299.942H480.165V298.79H485.349V299.83L481.541 305.574H485.509ZM493.191 306.246C492.711 306.481 492.231 306.641 491.751 306.726C491.271 306.822 490.828 306.87 490.423 306.87C489.282 306.87 488.428 306.545 487.863 305.894C487.308 305.243 487.031 304.353 487.031 303.222V302.262C487.031 301.163 487.308 300.283 487.863 299.622C488.428 298.961 489.223 298.63 490.247 298.63C490.791 298.63 491.287 298.742 491.735 298.966C492.194 299.179 492.556 299.51 492.823 299.958C493.1 300.395 493.239 300.961 493.239 301.654C493.239 302.102 493.175 302.614 493.047 303.19H488.327V303.222C488.327 304.033 488.492 304.646 488.823 305.062C489.164 305.478 489.708 305.686 490.455 305.686C490.796 305.686 491.17 305.643 491.575 305.558C491.991 305.473 492.396 305.339 492.791 305.158L493.191 306.246ZM490.247 299.782C489.628 299.782 489.159 299.985 488.839 300.39C488.53 300.785 488.359 301.345 488.327 302.07H491.911C491.943 301.878 491.959 301.697 491.959 301.526C491.959 300.929 491.788 300.491 491.447 300.214C491.116 299.926 490.716 299.782 490.247 299.782Z" fill="#F8F8F8"/>
<rect x="15" y="31.9941" width="495" height="226.091" fill="#F5F5F5"/>
<path d="M36.9944 57.7142V58.6582H31.0744V47.7782H36.8344V48.7222H32.1144V52.6742H36.3544V53.6182H32.1144V57.7142H36.9944ZM42.9035 51.6182C42.5728 51.6182 42.1942 51.6982 41.7675 51.8582C41.3408 52.0182 40.8075 52.3595 40.1675 52.8822V58.6582H39.2075V50.8662H40.1195V51.9862C40.7382 51.4742 41.2822 51.1329 41.7515 50.9622C42.2208 50.7915 42.6582 50.7062 43.0635 50.7062C43.7782 50.7062 44.3222 50.9249 44.6955 51.3622C45.0688 51.7995 45.2555 52.4289 45.2555 53.2502V58.6582H44.2955V53.4262C44.2955 52.7969 44.1782 52.3382 43.9435 52.0502C43.7195 51.7622 43.3728 51.6182 42.9035 51.6182ZM52.2071 58.3542C51.6205 58.6635 51.0285 58.8182 50.4311 58.8182C49.8978 58.8182 49.4818 58.7115 49.1831 58.4982C48.8845 58.2742 48.6765 57.9809 48.5591 57.6182C48.4418 57.2555 48.3831 56.8715 48.3831 56.4662V51.7142H46.9591V50.8662H48.3831V48.5942H49.3431V50.8662H51.9831V51.7142H49.3431V56.3862C49.3431 56.9835 49.4338 57.3995 49.6151 57.6342C49.8071 57.8582 50.1165 57.9702 50.5431 57.9702C50.9485 57.9702 51.3911 57.8422 51.8711 57.5862L52.2071 58.3542ZM59.6014 58.1942C59.164 58.4182 58.7054 58.5782 58.2254 58.6742C57.756 58.7702 57.3294 58.8182 56.9454 58.8182C55.8574 58.8182 55.0467 58.5035 54.5134 57.8742C53.9907 57.2449 53.7294 56.3649 53.7294 55.2342V54.2742C53.7294 53.1969 53.996 52.3329 54.5294 51.6822C55.0627 51.0315 55.8307 50.7062 56.8334 50.7062C57.6227 50.7062 58.284 50.9409 58.8174 51.4102C59.3614 51.8795 59.6334 52.5889 59.6334 53.5382C59.6334 53.9755 59.5694 54.4769 59.4414 55.0422H54.7054V55.2342C54.7054 56.1089 54.8814 56.7809 55.2334 57.2502C55.5854 57.7089 56.156 57.9382 56.9454 57.9382C57.2654 57.9382 57.6334 57.8955 58.0494 57.8102C58.476 57.7249 58.8867 57.5915 59.2814 57.4102L59.6014 58.1942ZM56.8334 51.5862C56.1187 51.5862 55.5854 51.8209 55.2334 52.2902C54.8814 52.7489 54.7054 53.3835 54.7054 54.1942H58.6254C58.6467 54.0555 58.6627 53.9275 58.6734 53.8102C58.684 53.6822 58.6894 53.5649 58.6894 53.4582C58.6894 52.7969 58.5027 52.3222 58.1294 52.0342C57.7667 51.7355 57.3347 51.5862 56.8334 51.5862ZM65.892 51.6662C65.444 51.6662 64.996 51.7515 64.548 51.9222C64.1 52.0929 63.5773 52.4715 62.98 53.0582V58.6582H62.02V50.8662H62.932V52.1622C63.476 51.5969 63.9827 51.2129 64.452 51.0102C64.9213 50.8075 65.4013 50.7062 65.892 50.7062V51.6662ZM73.6838 59.4582C73.3531 60.4075 72.9531 61.1062 72.4838 61.5542C72.0144 62.0022 71.3638 62.2262 70.5318 62.2262V61.3142C70.8838 61.3142 71.1824 61.2715 71.4278 61.1862C71.6838 61.1009 71.9238 60.9035 72.1478 60.5942C72.3824 60.2955 72.6278 59.8102 72.8838 59.1382L73.0598 58.6902L70.2438 50.8662H71.2518L72.5478 54.5942L73.5238 57.5222L74.4838 54.5942L75.7638 50.8662H76.7238L73.6838 59.4582ZM84.5208 54.2742V55.2342C84.5208 56.3649 84.2381 57.2449 83.6728 57.8742C83.1074 58.5035 82.3128 58.8182 81.2888 58.8182C80.2541 58.8182 79.4541 58.5035 78.8888 57.8742C78.3341 57.2449 78.0568 56.3649 78.0568 55.2342V54.2742C78.0568 53.1862 78.3341 52.3222 78.8888 51.6822C79.4541 51.0315 80.2541 50.7062 81.2888 50.7062C82.3234 50.7062 83.1181 51.0315 83.6728 51.6822C84.2381 52.3222 84.5208 53.1862 84.5208 54.2742ZM83.5128 54.2742C83.5128 53.4209 83.3208 52.7595 82.9368 52.2902C82.5528 51.8209 82.0034 51.5862 81.2888 51.5862C80.5741 51.5862 80.0248 51.8209 79.6408 52.2902C79.2568 52.7595 79.0648 53.4209 79.0648 54.2742V55.2342C79.0648 56.1195 79.2568 56.7915 79.6408 57.2502C80.0248 57.7089 80.5741 57.9382 81.2888 57.9382C82.0034 57.9382 82.5528 57.7089 82.9368 57.2502C83.3208 56.7915 83.5128 56.1195 83.5128 55.2342V54.2742ZM92.0254 58.6582V57.5382C91.428 58.0395 90.9 58.3809 90.4414 58.5622C89.9934 58.7329 89.5667 58.8182 89.1614 58.8182C88.4787 58.8182 87.956 58.5995 87.5934 58.1622C87.2307 57.7142 87.0494 57.0849 87.0494 56.2742V50.8662H88.0094V56.0982C88.0094 56.7169 88.116 57.1755 88.3294 57.4742C88.5427 57.7622 88.8734 57.9062 89.3214 57.9062C89.6414 57.9062 90.004 57.8262 90.4094 57.6662C90.8254 57.4955 91.348 57.1542 91.9774 56.6422V50.8662H92.9374V58.6582H92.0254ZM99.8451 51.6662C99.3971 51.6662 98.9491 51.7515 98.5011 51.9222C98.0531 52.0929 97.5305 52.4715 96.9331 53.0582V58.6582H95.9731V50.8662H96.8851V52.1622C97.4291 51.5969 97.9358 51.2129 98.4051 51.0102C98.8745 50.8075 99.3545 50.7062 99.8451 50.7062V51.6662ZM109.301 58.3542C108.714 58.6635 108.122 58.8182 107.525 58.8182C106.992 58.8182 106.576 58.7115 106.277 58.4982C105.978 58.2742 105.77 57.9809 105.653 57.6182C105.536 57.2555 105.477 56.8715 105.477 56.4662V51.7142H104.053V50.8662H105.477V48.5942H106.437V50.8662H109.077V51.7142H106.437V56.3862C106.437 56.9835 106.528 57.3995 106.709 57.6342C106.901 57.8582 107.21 57.9702 107.637 57.9702C108.042 57.9702 108.485 57.8422 108.965 57.5862L109.301 58.3542ZM116.695 58.1942C116.258 58.4182 115.799 58.5782 115.319 58.6742C114.85 58.7702 114.423 58.8182 114.039 58.8182C112.951 58.8182 112.14 58.5035 111.607 57.8742C111.084 57.2449 110.823 56.3649 110.823 55.2342V54.2742C110.823 53.1969 111.09 52.3329 111.623 51.6822C112.156 51.0315 112.924 50.7062 113.927 50.7062C114.716 50.7062 115.378 50.9409 115.911 51.4102C116.455 51.8795 116.727 52.5889 116.727 53.5382C116.727 53.9755 116.663 54.4769 116.535 55.0422H111.799V55.2342C111.799 56.1089 111.975 56.7809 112.327 57.2502C112.679 57.7089 113.25 57.9382 114.039 57.9382C114.359 57.9382 114.727 57.8955 115.143 57.8102C115.57 57.7249 115.98 57.5915 116.375 57.4102L116.695 58.1942ZM113.927 51.5862C113.212 51.5862 112.679 51.8209 112.327 52.2902C111.975 52.7489 111.799 53.3835 111.799 54.1942H115.719C115.74 54.0555 115.756 53.9275 115.767 53.8102C115.778 53.6822 115.783 53.5649 115.783 53.4582C115.783 52.7969 115.596 52.3222 115.223 52.0342C114.86 51.7355 114.428 51.5862 113.927 51.5862ZM123.226 58.6582L121.098 55.3302L119.018 58.6582H117.994L120.602 54.5942L118.202 50.8662H119.29L121.21 53.8582L123.082 50.8662H124.106L121.706 54.5942L124.314 58.6582H123.226ZM130.223 58.3542C129.636 58.6635 129.044 58.8182 128.447 58.8182C127.913 58.8182 127.497 58.7115 127.199 58.4982C126.9 58.2742 126.692 57.9809 126.575 57.6182C126.457 57.2555 126.399 56.8715 126.399 56.4662V51.7142H124.975V50.8662H126.399V48.5942H127.359V50.8662H129.999V51.7142H127.359V56.3862C127.359 56.9835 127.449 57.3995 127.631 57.6342C127.823 57.8582 128.132 57.9702 128.559 57.9702C128.964 57.9702 129.407 57.8422 129.887 57.5862L130.223 58.3542ZM139.529 51.6182C139.198 51.6182 138.819 51.6982 138.393 51.8582C137.966 52.0182 137.433 52.3595 136.793 52.8822V58.6582H135.833V46.8182H136.793V51.9382C137.39 51.4369 137.918 51.1062 138.377 50.9462C138.846 50.7862 139.283 50.7062 139.689 50.7062C140.403 50.7062 140.947 50.9249 141.321 51.3622C141.694 51.7995 141.881 52.4289 141.881 53.2502V58.6582H140.921V53.4262C140.921 52.7969 140.803 52.3382 140.569 52.0502C140.345 51.7622 139.998 51.6182 139.529 51.6182ZM150.32 58.1942C149.883 58.4182 149.424 58.5782 148.944 58.6742C148.475 58.7702 148.048 58.8182 147.664 58.8182C146.576 58.8182 145.765 58.5035 145.232 57.8742C144.709 57.2449 144.448 56.3649 144.448 55.2342V54.2742C144.448 53.1969 144.715 52.3329 145.248 51.6822C145.781 51.0315 146.549 50.7062 147.552 50.7062C148.341 50.7062 149.003 50.9409 149.536 51.4102C150.08 51.8795 150.352 52.5889 150.352 53.5382C150.352 53.9755 150.288 54.4769 150.16 55.0422H145.424V55.2342C145.424 56.1089 145.6 56.7809 145.952 57.2502C146.304 57.7089 146.875 57.9382 147.664 57.9382C147.984 57.9382 148.352 57.8955 148.768 57.8102C149.195 57.7249 149.605 57.5915 150 57.4102L150.32 58.1942ZM147.552 51.5862C146.837 51.5862 146.304 51.8209 145.952 52.2902C145.6 52.7489 145.424 53.3835 145.424 54.1942H149.344C149.365 54.0555 149.381 53.9275 149.392 53.8102C149.403 53.6822 149.408 53.5649 149.408 53.4582C149.408 52.7969 149.221 52.3222 148.848 52.0342C148.485 51.7355 148.053 51.5862 147.552 51.5862ZM156.611 51.6662C156.163 51.6662 155.715 51.7515 155.267 51.9222C154.819 52.0929 154.296 52.4715 153.699 53.0582V58.6582H152.739V50.8662H153.651V52.1622C154.195 51.5969 154.701 51.2129 155.171 51.0102C155.64 50.8075 156.12 50.7062 156.611 50.7062V51.6662ZM163.867 58.1942C163.43 58.4182 162.971 58.5782 162.491 58.6742C162.022 58.7702 161.595 58.8182 161.211 58.8182C160.123 58.8182 159.312 58.5035 158.779 57.8742C158.256 57.2449 157.995 56.3649 157.995 55.2342V54.2742C157.995 53.1969 158.262 52.3329 158.795 51.6822C159.328 51.0315 160.096 50.7062 161.099 50.7062C161.888 50.7062 162.55 50.9409 163.083 51.4102C163.627 51.8795 163.899 52.5889 163.899 53.5382C163.899 53.9755 163.835 54.4769 163.707 55.0422H158.971V55.2342C158.971 56.1089 159.147 56.7809 159.499 57.2502C159.851 57.7089 160.422 57.9382 161.211 57.9382C161.531 57.9382 161.899 57.8955 162.315 57.8102C162.742 57.7249 163.152 57.5915 163.547 57.4102L163.867 58.1942ZM161.099 51.5862C160.384 51.5862 159.851 51.8209 159.499 52.2902C159.147 52.7489 158.971 53.3835 158.971 54.1942H162.891C162.912 54.0555 162.928 53.9275 162.939 53.8102C162.95 53.6822 162.955 53.5649 162.955 53.4582C162.955 52.7969 162.768 52.3222 162.395 52.0342C162.032 51.7355 161.6 51.5862 161.099 51.5862Z" fill="black"/>
</svg>
