<svg fill="none" height="24" viewBox="0 0 24 24" width="24" xmlns="http://www.w3.org/2000/svg"><g clip-rule="evenodd" fill="#22202a" fill-rule="evenodd"><path d="m16.4064 3.86548c-.231-.74896-.8883-1.36548-1.9052-1.36548-.4688 0-.861.09795-1.1753.29533-.3177.19954-.5158.47563-.6357.76105-.1997.47562-.1934 1.02528-.1898 1.34101.0004.03771.0008.07209.0008.10261v16.4995c0 .0262.002.0523.0059.0774.0345.2231.2164.3975.443.4205.0168.0017.0339.0026.0511.0026 1.0565 0 1.8267-.4819 2.2182-1.1849l.0122-.0222c.3351.0766.6861.0751 1.0298-.0001.4084-.0894.7951-.2803 1.129-.55.3338-.2697.6084-.6128.8013-.9994.1779-.3565.2832-.7437.3056-1.1339.3569-.0571.6985-.1887 1.0025-.3869.3557-.2319.6488-.5478.8534-.9199.2045-.3721.3143-.7889.3195-1.2134s-.0944-.8438-.29-1.2205c-.1005-.1938-.2249-.3733-.3697-.5345.2294-.2057.4199-.456.5625-.7358.1794-.3517.2794-.7427.2926-1.1393s-.0606-.7911-.2187-1.1487c-.1583-.3578-.3973-.6702-.7011-.90467-.1336-.10309-.2776-.18938-.4291-.25737.2034-.36903.3451-.77726.4195-1.205.1022-.5878.0753-1.19907-.0772-1.78123-.1525-.58213-.4272-1.12219-.804-1.57135-.377-.44932-.8468-.79651-1.3724-1.00343-.4108-.1617-.8439-.23301-1.2748-.20901zm.7061 8.76822c.3977.0109.7863-.0847 1.1281-.2821.2391-.1381.321-.4439.1829-.683-.1382-.2392-.444-.321-.6831-.1829-.1768.1021-.3819.1544-.6006.1484-.2193-.006-.4484-.0708-.6655-.1964-.2172-.1258-.4126-.3072-.5655-.5302-.1529-.2231-.2558-.4769-.3001-.7373-.0463-.27226-.3045-.45539-.5767-.40907-.2723.04632-.4554.30457-.4091.57677.0689.4049.2275.7942.4611 1.135s.5379.6267.8892.8301c.3516.2036.7424.3199 1.1393.3307zm-1.8131 1.1237c.1016-.2567-.0242-.5473-.2809-.6489-.2568-.1016-.5473.0241-.649.2809-.0941.2378-.1258.4954-.0858.749.04.2539.1497.4894.3162.6845.1662.1947.3811.3402.6206.4291.2588.0961.5466-.0358.6427-.2947s-.0358-.5466-.2947-.6427c-.0892-.0332-.1589-.0834-.208-.1409-.0486-.0569-.0781-.1222-.089-.191-.0109-.069-.0035-.1461.0279-.2253zm2.1005-6.44403c-.1265-.18234-.2994-.32731-.5045-.41714-.2529-.11082-.5478.00439-.6586.25733-.1108.25293.0044.5478.2573.65862.0306.01337.0599.0362.0843.07139.0249.0358.0453.08568.0522.14867.0069.06319-.0005.13426-.0254.20547-.0248.0712-.0648.1357-.1145.18721-.0498.05149-.1045.08518-.1559.10315-.2606.09123-.3979.37648-.3067.63711.0912.26064.3765.39797.6371.30674.2072-.07251.393-.19521.5446-.35217.1517-.15695.2677-.34653.3396-.55252s.099-.42668.0752-.64398c-.0238-.21749-.0985-.42816-.2247-.60988zm-2.7349 10.92213c.1016-.2567-.0241-.5473-.2809-.6489s-.5473.0241-.6489.2809c-.0942.2378-.1258.4955-.0859.7491.0401.2539.1497.4893.3163.6845.1661.1947.381.3401.6205.4291.2589.0961.5466-.0359.6427-.2948.0962-.2589-.0358-.5466-.2947-.6427-.0892-.0331-.1589-.0834-.2079-.1408-.0486-.057-.0782-.1223-.0891-.191-.0108-.0691-.0035-.1462.0279-.2254zm.8355-1.2191c-.0117-.2759.2024-.509.4783-.5207.236-.01.4538-.0731.6358-.1776.1816-.1042.3225-.2463.4158-.4105.0931-.164.1393-.3507.1328-.5462-.0093-.276.2069-.5072.4829-.5165.276-.0092.5072.207.5165.483.0127.3771-.077.7467-.2627 1.0737-.1856.3266-.458.5948-.7876.7839-.3291.1888-.7045.2929-1.0911.3093-.2759.0117-.509-.2025-.5207-.4784zm-.3653-11.37084c.2746-.02876.474-.27472.4452-.54936s-.2747-.47396-.5494-.4452c-.2544.02665-.4974.11783-.7037.27066-.2065.15301-.3645.35917-.4603.59716-.0957.23742-.1252.49521-.0932.74867.0347.27396.2849.46796.5588.43332.274-.03465.468-.28482.4333-.55878-.0119-.09441.0004-.17946.0286-.24951.028-.06947.0722-.12589.1281-.16733.0562-.04163.1279-.07076.2126-.07963z"/><path d="m4.05295 9.90583c.1336-.10309.27752-.18938.42906-.25737-.20341-.36903-.34505-.77726-.41947-1.205-.10226-.5878-.07534-1.19907.07717-1.78123.15251-.58213.42725-1.12219.80405-1.57135.37692-.44932.84681-.79651 1.3724-1.00343.41072-.1617.84384-.23301 1.27473-.20901.2272-.75386.88525-1.37844 1.9091-1.37844.4688 0 .86101.09795 1.17531.29533.3177.19954.5158.47563.6357.76105.1997.47562.1934 1.02528.1898 1.34101-.0004.03758-.0008.07219-.0008.10261v16.499c0 .2761-.2239.501-.5.501-1.05648 0-1.82668-.4819-2.21817-1.1849l-.01221-.0222c-.33505.0766-.68609.0751-1.02981-.0001-.40837-.0894-.79505-.2803-1.12892-.55s-.60847-.6128-.80138-.9994c-.17788-.3565-.2832-.7437-.30553-1.1339-.3569-.0571-.69859-.1887-1.00257-.3869-.35568-.2319-.64878-.5478-.85335-.9199-.20458-.3721-.31433-.7889-.31951-1.2134s.09438-.8438.28992-1.2205c.10059-.1938.22497-.3733.36971-.5345-.22934-.2057-.41986-.456-.56248-.7358-.17934-.3517-.27934-.7427-.29257-1.1393s.06061-.7911.21874-1.1487c.15821-.3578.39722-.6702.70108-.90467zm3.84398 2.51727c-.3961.0372-.79015-.0325-1.14423-.2069-.24772-.122-.34964-.4217-.22763-.6695.12201-.2477.42174-.3496.66946-.2276.18314.0902.3913.1288.60906.1084.2185-.0205.44282-.1003.65106-.24.20841-.1399.39142-.3337.52924-.5664.13783-.2327.22369-.4928.25069-.75553.02699-.26274-.00608-.51547-.0901-.73632-.09818-.25809.03145-.54692.28954-.64511.2581-.09819.54692.03144.64508.28954.1428.37515.1922.78547.1502 1.19409-.0419.40863-.1744.80743-.38502 1.16293-.21058.3555-.49527.6609-.83241.8872-.33731.2263-.71957.3682-1.11494.4052zm1.94703 5.5076c.27614-.0003.49974-.2244.49944-.5006-.0003-.2761-.2244-.4997-.50052-.4994-.38701.0004-.76639.0889-1.10298.264-.33709.1753-.62035.432-.81925.7507-.19907.319-.3039.6847-.30682 1.0619-.00213.2762.22.5018.49613.5039.27614.0021.50171-.22.50384-.4961.00151-.1956.05537-.3803.1552-.5403.10001-.1602.24664-.2964.43235-.393.1862-.0968.40638-.1509.64261-.1511zm-4.23716-3.7607c.00312.2762.22948.4975.50561.4944.08515-.001.15975.0197.22037.0545.06035.0347.11073.0857.14655.1515.03611.0663.05812.1494.05715.2445-.0028.2762.21877.5023.4949.5051s.50225-.2188.50505-.4949c.0026-.2555-.05646-.5081-.17886-.7329-.1227-.2254-.30339-.4119-.5262-.5401-.22255-.128-.47446-.1905-.73024-.1877-.27612.0032-.49744.2295-.49433.5056zm4.29669 1.2717c.25231-.1123.36571-.4078.25341-.6601s-.40782-.3658-.6601-.2535c-.19231.0857-.36038.2194-.48412.3932-.12391.174-.19562.3775-.21017.5895-.01451.2114.02836.4207.11738.6097.11768.2498.4156.3569.66541.2392s.35692-.4156.23923-.6654c-.0207-.0439-.02652-.0836-.02437-.115.00212-.0308.01192-.0566.02713-.078.01539-.0216.03977-.0434.0762-.0596zm-3.22526-8.72396c.21495-.05532.44055-.05208.65447.01392.26387.0814.41179.3613.33039.62517-.08141.26387-.36131.41179-.62518.33039-.03183-.00982-.06897-.01172-.11045-.00104-.04221.01086-.09023.0353-.13662.07847-.04654.0433-.08739.10192-.11511.17207-.02772.07014-.03962.14507-.03561.21658.00401.07148.02345.13277.05056.17991.13767.23938.05522.54504-.18415.68271-.23938.13767-.54504.05522-.68271-.18415-.10942-.19026-.16991-.40457-.18213-.62248-.01222-.21789.02385-.43721.10404-.64012.08018-.2029.20386-.38769.36389-.5366.16017-.14905.35438-.2597.56861-.31483zm2.36585-1.10321c-.27464-.02877-.47396-.27472-.44519-.54936.02876-.27464.27472-.47397.54936-.4452.21892.02293.429.10152.60782.234.17907.13266.31583.31134.39883.51716.0827.20524.1078.42716.0803.64422-.0346.27396-.28477.46796-.55873.43331-.27397-.03464-.46797-.28482-.43332-.55878.00733-.058-.00057-.10718-.01583-.14505-.01503-.03729-.03804-.06624-.06652-.08733-.02872-.02128-.06751-.03782-.11672-.04297z"/></g></svg>